<svg id="Layer_1" data-name="Layer 1" xmlns="http://www.w3.org/2000/svg" viewBox="0 0 459.92 51.59"><defs><style>.cls-1{fill:#52a8ac;}</style></defs><title>logos_web</title><path class="cls-1" d="M45.17,61.61h-24V24.12h12V52h12Z" transform="translate(-21.17 -10.92)"/><path class="cls-1" d="M62.08,30.72q14.4,0,14.4,9.9v21h-6l-3.42-3.42a11.4,11.4,0,0,1-4.74,3.18,16,16,0,0,1-5.67,1.14,17.68,17.68,0,0,1-4.29-.42,10.73,10.73,0,0,1-3.18-1.44q-3.41-2.16-3.41-8,0-10.78,16.31-10.79h2.4V39.66q-1.92-.12-3.18-.12a37,37,0,0,0-11.64,1.62l-1.44-8.58A46.88,46.88,0,0,1,62.08,30.72Zm-4.2,20.57v2.46h2.46q2.64,0,3.39-.6a1.9,1.9,0,0,0,.75-1.56V48.77H62a8.12,8.12,0,0,0-3.15.45Q57.88,49.67,57.88,51.29Z" transform="translate(-21.17 -10.92)"/><path class="cls-1" d="M82,29.7q-1.35-1-1.35-3.72T82,22.2q1.35-1.08,5.34-1.08t5.34,1.08Q94,23.28,94,26T92.64,29.7q-1.35,1-5.34,1T82,29.7Zm-.69,31.91V33.12l12-1.5v30Z" transform="translate(-21.17 -10.92)"/><path class="cls-1" d="M111.14,28.56v.72a13.39,13.39,0,0,1-1.5,5.22c-.28.52-.44.82-.47.9l-4.08,8.16-5.34-1.74,2-8.64a4.23,4.23,0,0,1-2.85-1.41,7.17,7.17,0,0,1-.75-3.9,6.15,6.15,0,0,1,1.32-4.29q1.32-1.44,5.19-1.44c2.58,0,4.3.48,5.18,1.44S111.14,26.2,111.14,28.56Z" transform="translate(-21.17 -10.92)"/><path class="cls-1" d="M117.41,32.82q3.87-2.1,10.59-2.1a39.27,39.27,0,0,1,12.36,1.86L139,40.74a34.34,34.34,0,0,0-9.36-1.32q-1.44,0-4.08.24v1.92q9.72,0,13.2,2.88a8.31,8.31,0,0,1,2.46,3.14,10.66,10.66,0,0,1,.72,4.14,15.65,15.65,0,0,1-.57,4.35,6.92,6.92,0,0,1-1.74,3.06A12.1,12.1,0,0,1,137.18,61a9.45,9.45,0,0,1-3.3,1,50,50,0,0,1-7.38.48,48.21,48.21,0,0,1-13.44-1.74l1.5-8.52a36.76,36.76,0,0,0,10.92,1.56,46,46,0,0,0,4.92-.24V51.65q-9.6,0-13.23-2.52c-2.42-1.68-3.63-4.46-3.63-8.36S114.83,34.22,117.41,32.82Z" transform="translate(-21.17 -10.92)"/><path class="cls-1" d="M172,62.49h-.21c-5.12,0-8.55-.3-10.21-.91-2.09-.78-3.41-1.79-3.91-3a6.4,6.4,0,0,1-.5-2.61V22.41l12.45-.93V52.85a26.73,26.73,0,0,0,2.73.38h.22ZM157.61,22.83V56a6.05,6.05,0,0,0,.46,2.43c.46,1.1,1.69,2,3.65,2.76,1.59.58,4.9.88,9.85.89l.52-8.39a26.39,26.39,0,0,1-2.75-.41l-.18,0V22Z" transform="translate(-21.17 -10.92)"/><path class="cls-1" d="M183.93,51.86H171.49V23l12.44-1.56Zm-12-.45h11.55V21.9l-11.55,1.44ZM177.74,21c-2.73,0-4.52-.35-5.47-1.07h0c-1-.72-1.44-2-1.44-3.89s.48-3.2,1.44-4,2.74-1.13,5.47-1.13,4.53.37,5.48,1.13,1.43,2.09,1.43,4-.48,3.17-1.43,3.89S180.48,21,177.74,21Zm0-9.6c-2.59,0-4.34.35-5.2,1s-1.26,1.88-1.26,3.61.42,2.9,1.26,3.54h0c.85.64,2.61,1,5.2,1s4.35-.33,5.21-1,1.26-1.83,1.26-3.54-.43-2.94-1.27-3.61S180.34,11.37,177.74,11.37Z" transform="translate(-21.17 -10.92)"/><path class="cls-1" d="M204.09,62.49h-.21c-5.56,0-9.07-.29-10.75-.91-2.09-.74-3.43-1.75-4-3a6.4,6.4,0,0,1-.5-2.61V39.58h-3V31.4h3V26.65l12.44-3.11V31.4h4.14v8.18H201.1V52.85a27.16,27.16,0,0,0,3.33.38h.23Zm-18-23.36h3V56a5.89,5.89,0,0,0,.46,2.43c.49,1.14,1.74,2.06,3.71,2.76,1.59.58,5.08.88,10.39.89l.51-8.39a27,27,0,0,1-3.34-.41l-.18,0V39.13h4.14V31.84h-4.14V24.11L189.11,27v4.84h-3Z" transform="translate(-21.17 -10.92)"/><path class="cls-1" d="M225.32,62.49h-.21c-5.55,0-9.07-.29-10.75-.91-2.09-.74-3.43-1.75-4-3a6.4,6.4,0,0,1-.5-2.61V39.58h-3V31.4h3V26.65l12.45-3.11V31.4h4.14v8.18h-4.14V52.85a27.16,27.16,0,0,0,3.33.38h.22Zm-18-23.36h3V56a6.05,6.05,0,0,0,.46,2.43c.49,1.14,1.74,2.06,3.71,2.76,1.59.58,5.09.88,10.39.89l.52-8.39a27.16,27.16,0,0,1-3.35-.41l-.18,0V39.13H226V31.84h-4.14V24.11L210.34,27v4.84h-3Z" transform="translate(-21.17 -10.92)"/><path class="cls-1" d="M243,62.49h-.21c-5.12,0-8.56-.3-10.22-.91-2.09-.78-3.4-1.79-3.91-3a6.57,6.57,0,0,1-.49-2.61V22.41l12.44-.93V52.85a26.73,26.73,0,0,0,2.73.38h.22ZM228.58,22.83V56A5.89,5.89,0,0,0,229,58.4c.45,1.1,1.68,2,3.65,2.76,1.58.58,4.9.88,9.85.89l.51-8.39a26.66,26.66,0,0,1-2.74-.41l-.19,0V22Z" transform="translate(-21.17 -10.92)"/><path class="cls-1" d="M258,55.84c-5.64,0-9.78-1.35-12.31-4s-3.81-6.73-3.81-12.12,1.28-9.47,3.81-12.12,6.66-4,12.27-4,9.53.78,11.68,2.32,3.27,4.48,3.27,8.7c0,3.58-1.31,6.2-3.91,7.78s-7.17,2.32-13.78,2.34v1.67a36.68,36.68,0,0,0,14.58-1.63l.25-.08L271.57,54l-.19.05A51.76,51.76,0,0,1,258,55.84Zm0-31.79c-5.49,0-9.51,1.29-12,3.85s-3.69,6.54-3.69,11.82S243.57,49,246,51.53s6.47,3.86,12,3.86a51.5,51.5,0,0,0,13.06-1.74l-1.37-8.36A37.13,37.13,0,0,1,255,46.84l-.2,0V44.29H255c6.64,0,11.27-.76,13.77-2.28s3.7-4,3.7-7.39c0-4.06-1-6.87-3.09-8.34S263.48,24.05,258,24.05Zm-.5,13.73h-2.69V35.1a2.23,2.23,0,0,1,1.12-2.27,8.19,8.19,0,0,1,3.24-.47h2.69V35a2.24,2.24,0,0,1-1.12,2.27A8.19,8.19,0,0,1,257.47,37.78Zm-2.24-.45h2.24a7.84,7.84,0,0,0,3-.43c.58-.26.86-.87.86-1.86V32.8h-2.24a8,8,0,0,0-3.05.43c-.58.27-.86.88-.86,1.87Z" transform="translate(-21.17 -10.92)"/><path class="cls-1" d="M301.21,61.61l-4.62-11.88h-.42V61.61h-12v-39l12-.9v19.8h.42l4.32-9.9h12.95l-6.95,14.27,7.25,15.72Z" transform="translate(-21.17 -10.92)"/><path class="cls-1" d="M317.85,29.7q-1.35-1-1.35-3.72t1.35-3.78q1.35-1.08,5.34-1.08t5.34,1.08q1.35,1.08,1.35,3.78t-1.35,3.72q-1.35,1-5.34,1T317.85,29.7Zm-.69,31.91V33.12l12-1.5v30Z" transform="translate(-21.17 -10.92)"/><path class="cls-1" d="M332.76,39.36V31.62h3v-4.8l12-3v7.8h4.14v7.74h-4.14V53a27.78,27.78,0,0,0,3.54.42l-.54,8.82q-8.22,0-10.68-.9-3.06-1.08-3.83-2.88a6.16,6.16,0,0,1-.48-2.52V39.36Z" transform="translate(-21.17 -10.92)"/><path class="cls-1" d="M377.8,52.61l.72,8.64a21.7,21.7,0,0,1-8,1.26q-8.4,0-12.15-3.93t-3.75-12q0-8,3.75-12t12.15-3.93a20.31,20.31,0,0,1,8,1.26l-1.44,8.16a26.3,26.3,0,0,0-5-.66c-3,0-4.55,1.06-4.55,3.18V53.39a22.55,22.55,0,0,0,4.46.36A17.09,17.09,0,0,0,377.8,52.61Z" transform="translate(-21.17 -10.92)"/><path class="cls-1" d="M394.72,43.14V61.61h-12v-39l12-.9v11a18.3,18.3,0,0,1,8.51-2q4.68,0,7.08,1.83a6,6,0,0,1,2.4,5.07v24h-12v-21h-1.86a8.12,8.12,0,0,0-3.15.45Q394.72,41.52,394.72,43.14Z" transform="translate(-21.17 -10.92)"/><path class="cls-1" d="M429.51,51.41v2.1q1.8.18,3.6.18a37.29,37.29,0,0,0,11.27-1.8l1.44,8.82a51.3,51.3,0,0,1-13.31,1.8q-8.4,0-12.15-3.93t-3.75-12q0-8,3.75-12t12.12-3.93q8.36,0,11.54,2.28t3.18,8.52q0,5.28-3.81,7.58T429.51,51.41Zm0-9.41v2.46H432a8,8,0,0,0,3.14-.45c.67-.3,1-1,1-2.07V39.48h-2.45a8.12,8.12,0,0,0-3.15.45Q429.51,40.38,429.51,42Z" transform="translate(-21.17 -10.92)"/><path class="cls-1" d="M457.1,31.62l3,3a20.52,20.52,0,0,1,12-3.9,10.65,10.65,0,0,1,6.6,1.83,6,6,0,0,1,2.4,5.07v24h-12v-21h-1.85a8.19,8.19,0,0,0-3.09.45,1.79,1.79,0,0,0-1,1.83V61.61h-12v-30Z" transform="translate(-21.17 -10.92)"/></svg>